<?xml version="1.0" encoding="UTF-8" standalone="no"?>
<!-- Created with Inkscape (http://www.inkscape.org/) -->

<svg
   xmlns:dc="http://purl.org/dc/elements/1.1/"
   xmlns:cc="http://creativecommons.org/ns#"
   xmlns:rdf="http://www.w3.org/1999/02/22-rdf-syntax-ns#"
   xmlns:svg="http://www.w3.org/2000/svg"
   xmlns="http://www.w3.org/2000/svg"
   xmlns:sodipodi="http://sodipodi.sourceforge.net/DTD/sodipodi-0.dtd"
   xmlns:inkscape="http://www.inkscape.org/namespaces/inkscape"
   version="1.1"
   id="svg2"
   xml:space="preserve"
   width="4096"
   height="4096"
   viewBox="0 0 4096 4096"
   sodipodi:docname="femsa-logo.svg"
   inkscape:export-filename="G:\Users\suitedoalex\sites\femsa-logo-0.png"
   inkscape:export-xdpi="96"
   inkscape:export-ydpi="96"
   inkscape:version="0.92.2 (5c3e80d, 2017-08-06)"><metadata
     id="metadata8"><rdf:RDF><cc:Work
         rdf:about=""><dc:format>image/svg+xml</dc:format><dc:type
           rdf:resource="http://purl.org/dc/dcmitype/StillImage" /><dc:title></dc:title></cc:Work></rdf:RDF></metadata><defs
     id="defs6"><clipPath
       clipPathUnits="userSpaceOnUse"
       id="clipPath20"><path
         d="m 252.464,127.764 h 104.089 v 33.732 H 252.464 Z"
         id="path18"
         inkscape:connector-curvature="0" /></clipPath></defs><sodipodi:namedview
     pagecolor="#ffffff"
     bordercolor="#666666"
     borderopacity="1"
     objecttolerance="10"
     gridtolerance="10"
     guidetolerance="10"
     inkscape:pageopacity="0"
     inkscape:pageshadow="2"
     inkscape:window-width="1600"
     inkscape:window-height="837"
     id="namedview4"
     showgrid="false"
     inkscape:zoom="0.055871212"
     inkscape:cx="-696.91631"
     inkscape:cy="806.11589"
     inkscape:window-x="-8"
     inkscape:window-y="-8"
     inkscape:window-maximized="1"
     inkscape:current-layer="g10" /><g
     id="g10"
     inkscape:groupmode="layer"
     inkscape:label="femsa-logo"
     transform="matrix(1.3333333,0,0,-1.3333333,0,4096)"><g
       id="g14"
       transform="matrix(24.268769,0,0,24.268769,-5877.441,-1967.2846)"
       inkscape:export-filename="G:\Users\suitedoalex\sites\femsa-logo-4.png"
       inkscape:export-xdpi="12.646886"
       inkscape:export-ydpi="12.646886"><g
         id="g16"
         clip-path="url(#clipPath20)"><g
           id="g22"
           transform="translate(274.2076,154.1405)"><path
             d="m 0,0 h -15.485 c -0.092,-0.004 -0.172,-0.075 -0.167,-0.167 0.005,-0.093 0.073,-0.131 0.146,-0.189 0.115,-0.092 0.223,-0.063 0.356,-0.125 0.149,-0.071 0.226,-0.128 0.356,-0.23 0.181,-0.143 0.285,-0.231 0.418,-0.419 0.131,-0.185 0.179,-0.309 0.251,-0.523 0.057,-0.167 0.075,-0.266 0.105,-0.44 0.021,-0.121 0.042,-0.19 0.042,-0.313 v -17.285 h 8.705 c 0.109,0.022 0.209,0.084 0.167,0.23 -0.033,0.118 -0.148,0.122 -0.251,0.189 -0.184,0.118 -0.319,0.131 -0.502,0.251 -0.185,0.12 -0.292,0.192 -0.439,0.355 -0.134,0.148 -0.203,0.242 -0.294,0.419 -0.083,0.163 -0.125,0.261 -0.167,0.439 -0.05,0.216 -0.042,0.401 -0.042,0.565 v 6.843 h 2.197 c 0.377,-0.021 0.551,-0.033 0.9,-0.084 0.214,-0.031 0.333,-0.059 0.544,-0.104 0.298,-0.065 0.465,-0.111 0.753,-0.209 0.277,-0.096 0.359,-0.161 0.691,-0.294 0.314,-0.125 0.35,-0.181 0.565,-0.313 0.22,-0.136 0.345,-0.213 0.544,-0.377 0.165,-0.136 0.254,-0.219 0.398,-0.377 0.14,-0.154 0.218,-0.245 0.334,-0.418 0.125,-0.185 0.187,-0.297 0.272,-0.502 0.076,-0.182 0.126,-0.335 0.147,-0.482 0.01,-0.072 0.084,-0.146 0.251,-0.146 0.093,0 0.187,0.078 0.167,0.167 -0.69,3.076 -0.585,2.616 -1.422,6.383 -0.05,0.086 -0.11,0.142 -0.21,0.146 -0.065,0.003 -0.104,-0.003 -0.167,-0.021 -0.147,-0.042 -0.105,-0.377 -0.126,-0.649 -0.019,-0.249 -0.076,-0.395 -0.209,-0.607 -0.113,-0.18 -0.209,-0.265 -0.376,-0.397 -0.182,-0.142 -0.304,-0.205 -0.524,-0.272 -0.15,-0.046 -0.24,-0.061 -0.397,-0.063 -2.197,-0.021 -2.177,-0.021 -4.353,0 v 7.722 h 2.365 c 0.386,-0.014 0.604,-0.052 0.983,-0.126 0.34,-0.066 0.529,-0.123 0.858,-0.23 0.3,-0.097 0.464,-0.167 0.754,-0.293 0.327,-0.143 0.515,-0.226 0.816,-0.419 0.221,-0.141 0.347,-0.223 0.544,-0.397 0.177,-0.157 0.268,-0.257 0.418,-0.44 0.183,-0.222 0.289,-0.35 0.419,-0.606 0.118,-0.233 0.146,-0.461 0.23,-0.628 0.041,-0.082 0.118,-0.105 0.209,-0.105 0.042,0 0.207,0.039 0.188,0.126 C 0.481,-2.239 0.481,-2.218 0,0"
             style="fill:#98002e;fill-opacity:1;fill-rule:nonzero;stroke:none"
             id="path24"
             inkscape:connector-curvature="0" /></g><g
           id="g26"
           transform="translate(284.2912,136.898)"><path
             d="M 0,0 V 6.843 H 2.197 C 2.574,6.822 2.748,6.81 3.097,6.759 3.311,6.728 3.43,6.701 3.641,6.654 3.939,6.589 4.106,6.545 4.394,6.445 4.671,6.349 4.753,6.285 5.085,6.152 5.399,6.027 5.435,5.97 5.65,5.838 5.87,5.703 5.995,5.625 6.194,5.461 6.359,5.326 6.448,5.243 6.592,5.085 6.732,4.93 6.81,4.84 6.926,4.666 7.051,4.481 7.113,4.37 7.198,4.164 7.274,3.983 7.324,3.829 7.345,3.683 7.355,3.61 7.429,3.536 7.596,3.536 7.688,3.536 7.783,3.615 7.763,3.704 7.073,6.78 7.178,6.319 6.341,10.086 6.29,10.172 6.23,10.221 6.131,10.232 6.066,10.24 6.027,10.23 5.964,10.211 5.817,10.17 5.859,9.835 5.838,9.563 5.819,9.313 5.762,9.168 5.629,8.956 5.515,8.775 5.421,8.69 5.252,8.558 5.071,8.417 4.949,8.353 4.729,8.286 4.579,8.241 4.489,8.225 4.332,8.224 2.134,8.203 2.155,8.203 -0.021,8.224 v 7.721 h 2.365 c 0.386,-0.013 0.604,-0.052 0.983,-0.126 0.34,-0.066 0.528,-0.123 0.858,-0.23 0.3,-0.097 0.464,-0.167 0.753,-0.293 0.329,-0.142 0.515,-0.225 0.817,-0.418 0.221,-0.142 0.347,-0.224 0.543,-0.398 0.178,-0.156 0.269,-0.256 0.419,-0.439 0.183,-0.222 0.288,-0.351 0.419,-0.607 0.118,-0.232 0.146,-0.46 0.23,-0.628 0.041,-0.081 0.118,-0.104 0.209,-0.104 0.042,0 0.207,0.039 0.188,0.125 -0.481,2.177 -0.481,2.197 -0.962,4.415 H -8.684 c -0.092,-0.004 -0.172,-0.075 -0.167,-0.167 0.005,-0.093 0.074,-0.13 0.146,-0.188 0.115,-0.093 0.223,-0.063 0.356,-0.126 0.149,-0.07 0.226,-0.128 0.356,-0.23 0.181,-0.143 0.284,-0.23 0.418,-0.419 0.131,-0.184 0.178,-0.308 0.251,-0.523 0.057,-0.166 0.075,-0.266 0.105,-0.439 0.021,-0.122 0.042,-0.191 0.042,-0.314 V -2.448 H 6.761 L 7.745,1.967 7.682,2.092 C 7.652,2.152 7.582,2.132 7.515,2.134 7.374,2.139 7.359,1.971 7.305,1.841 7.159,1.486 7.162,1.404 6.992,1.172 6.761,0.858 6.698,0.753 6.531,0.586 6.318,0.373 6.189,0.26 5.945,0.084 5.628,-0.147 5.44,-0.269 5.087,-0.439 4.71,-0.621 4.484,-0.698 4.083,-0.816 3.667,-0.939 3.424,-0.982 2.995,-1.046 2.751,-1.082 2.613,-1.093 2.367,-1.109 1.404,-1.172 0.002,-1.172 0.002,-1.151 0.002,-0.718 0,0 0,0"
             style="fill:#98002e;fill-opacity:1;fill-rule:nonzero;stroke:none"
             id="path28"
             inkscape:connector-curvature="0" /></g><g
           id="g30"
           transform="translate(296.744,148.0512)"><path
             d="m 0,0 v -11.028 c -0.018,-0.286 -0.015,-0.456 0.063,-0.732 0.081,-0.288 0.159,-0.448 0.335,-0.691 0.142,-0.196 0.239,-0.302 0.439,-0.439 0.229,-0.157 0.377,-0.209 0.649,-0.293 0.111,-0.034 0.188,-0.114 0.188,-0.23 0,-0.105 -0.069,-0.189 -0.167,-0.189 H -2.741 V 3.704 c -0.032,0.301 -0.077,0.472 -0.188,0.753 -0.122,0.306 -0.194,0.493 -0.419,0.732 -0.175,0.187 -0.289,0.294 -0.523,0.398 -0.17,0.076 -0.314,0.084 -0.461,0.126 -0.091,0.026 -0.125,-0.042 -0.146,0.188 -0.009,0.103 0.106,0.209 0.209,0.209 4.227,0 4.06,-0.021 8.036,0 C 4.065,6.095 4.236,6.058 4.52,5.964 4.749,5.887 4.881,5.84 5.085,5.713 5.297,5.58 5.417,5.498 5.587,5.315 5.776,5.113 5.85,4.97 5.985,4.729 7.387,2.218 8.036,1.088 9.312,-1.276 9.402,-1.444 9.485,-1.531 9.647,-1.632 9.828,-1.746 9.958,-1.771 10.17,-1.8 c 0.235,-0.031 0.388,-0.049 0.607,0.042 0.23,0.095 0.342,0.212 0.481,0.419 0.171,0.255 0.184,0.449 0.23,0.753 0.377,2.448 0.544,3.097 1.067,6.445 0.022,0.23 0.147,0.251 0.168,0.251 h 7.868 v -16.928 c 0,-0.44 -0.015,-0.716 0.146,-1.131 0.121,-0.31 0.21,-0.418 0.44,-0.732 0.149,-0.203 0.293,-0.273 0.523,-0.377 0.17,-0.076 0.293,-0.104 0.46,-0.125 0.094,-0.012 0.123,-0.114 0.126,-0.209 0.003,-0.122 -0.109,-0.21 -0.23,-0.21 H 13.455 V -0.126 L 7.847,-14.187 Z"
             style="fill:#98002e;fill-opacity:1;fill-rule:nonzero;stroke:none"
             id="path32"
             inkscape:connector-curvature="0" /></g><g
           id="g34"
           transform="translate(332.5473,148.407)"><path
             d="M 0,0 -0.334,5.022 C -0.5,5.13 -0.599,5.183 -0.774,5.273 -1.245,5.515 -1.546,5.574 -2.05,5.734 -2.645,5.922 -2.989,6.004 -3.599,6.131 -4.294,6.276 -4.69,6.353 -5.398,6.403 -5.985,6.444 -6.32,6.45 -6.905,6.403 -7.515,6.354 -7.863,6.31 -8.454,6.152 -8.955,6.018 -9.235,5.923 -9.709,5.713 -10.096,5.541 -10.313,5.436 -10.672,5.21 -11.134,4.92 -11.379,4.723 -11.76,4.332 c -0.37,-0.381 -0.55,-0.629 -0.816,-1.089 -0.219,-0.379 -0.317,-0.61 -0.46,-1.025 -0.158,-0.459 -0.218,-0.732 -0.273,-1.214 -0.055,-0.486 -0.046,-0.768 0,-1.255 0.049,-0.513 0.097,-0.806 0.252,-1.297 0.122,-0.388 0.213,-0.601 0.398,-0.963 0.21,-0.411 0.357,-0.63 0.627,-1.004 0.257,-0.359 0.405,-0.562 0.711,-0.879 0.39,-0.405 0.655,-0.59 1.11,-0.921 0.391,-0.285 0.63,-0.421 1.046,-0.67 0.454,-0.271 0.728,-0.394 1.193,-0.648 0.506,-0.278 0.818,-0.39 1.297,-0.712 0.333,-0.224 0.539,-0.337 0.816,-0.628 0.21,-0.219 0.351,-0.344 0.461,-0.627 0.089,-0.232 0.111,-0.38 0.104,-0.628 -0.009,-0.303 -0.037,-0.491 -0.188,-0.753 -0.142,-0.245 -0.272,-0.36 -0.502,-0.524 -0.254,-0.18 -0.431,-0.239 -0.733,-0.313 -0.428,-0.107 -0.695,-0.093 -1.13,-0.022 -0.374,0.062 -0.574,0.159 -0.92,0.315 -0.451,0.201 -0.698,0.341 -1.089,0.648 -0.293,0.23 -0.675,0.576 -1.067,0.984 -0.442,0.459 -0.643,0.761 -1.046,1.255 -0.187,0.229 -0.335,0.523 -0.481,0.586 -0.091,0.039 -0.252,-0.042 -0.252,-0.146 v -5.106 c 0.257,-0.252 0.419,-0.378 0.712,-0.586 0.447,-0.317 0.735,-0.444 1.235,-0.67 0.538,-0.243 0.855,-0.357 1.423,-0.523 0.547,-0.16 0.859,-0.251 1.422,-0.335 0.349,-0.052 0.549,-0.061 0.9,-0.083 0.635,-0.041 0.999,-0.039 1.633,0.021 0.468,0.044 0.733,0.082 1.192,0.188 0.355,0.082 0.558,0.126 0.9,0.251 0.494,0.18 0.765,0.312 1.214,0.586 0.472,0.288 0.726,0.479 1.13,0.858 0.334,0.314 0.639,0.676 0.962,1.172 0.431,0.66 0.642,1.077 0.837,1.841 0.104,0.408 0.124,0.648 0.168,1.067 0.067,0.642 0.116,1.013 0.041,1.653 -0.074,0.637 -0.19,0.992 -0.418,1.591 -0.259,0.678 -0.443,1.057 -0.858,1.653 -0.412,0.593 -0.691,0.905 -1.234,1.381 -0.489,0.428 -0.803,0.629 -1.361,0.963 -0.608,0.362 -1.001,0.474 -1.632,0.795 -0.615,0.312 -1.001,0.425 -1.569,0.816 -0.349,0.24 -0.567,0.365 -0.838,0.69 -0.184,0.223 -0.326,0.347 -0.397,0.628 -0.06,0.237 -0.058,0.39 0,0.628 0.075,0.31 0.193,0.487 0.44,0.69 0.298,0.247 0.558,0.257 0.941,0.314 0.38,0.057 0.604,0.038 0.983,-0.021 0.467,-0.072 0.717,-0.19 1.151,-0.376 0.433,-0.186 0.674,-0.307 1.068,-0.565 0.374,-0.245 0.562,-0.419 0.9,-0.712 C -1.261,1.18 -0.997,0.914 -0.565,0.419 -0.424,0.257 -0.419,0.042 -0.209,0 -0.129,-0.016 0,-0.042 0,0"
             style="fill:#98002e;fill-opacity:1;fill-rule:nonzero;stroke:none"
             id="path36"
             inkscape:connector-curvature="0" /></g><g
           id="g38"
           transform="translate(340.1854,154.6845)"><path
             d="m 0,0 10.211,-18.728 0.168,-0.189 c 0.138,-0.155 0.229,-0.234 0.398,-0.355 0.219,-0.158 0.353,-0.24 0.606,-0.335 0.206,-0.077 0.356,-0.105 0.544,-0.147 0.126,-0.028 0.249,-0.061 0.272,-0.188 0.022,-0.118 -0.026,-0.272 -0.146,-0.272 -4.813,-0.021 -4.708,-0.021 -8.077,0 -0.214,0.007 -0.336,0.014 -0.544,0.063 -0.31,0.073 -0.481,0.149 -0.754,0.314 -0.306,0.185 -0.46,0.314 -0.69,0.607 -0.212,0.268 -0.315,0.433 -0.482,0.732 -1.506,2.699 -1.611,2.929 -3.222,5.901 -0.134,0.222 -0.259,0.325 -0.481,0.46 -0.22,0.134 -0.372,0.174 -0.628,0.21 -0.267,0.036 -0.428,0.038 -0.691,-0.021 -0.281,-0.064 -0.397,-0.126 -0.669,-0.314 -0.268,-0.186 -0.314,-0.335 -0.481,-0.544 -0.199,-0.248 -0.231,-0.503 -0.398,-0.712 -0.075,-0.094 -0.161,-0.193 -0.272,-0.146 -0.105,0.044 -0.146,0.166 -0.105,0.272 1.884,4.833 1.779,4.624 5.232,13.371 z"
             style="fill:#98002e;fill-opacity:1;fill-rule:nonzero;stroke:none"
             id="path40"
             inkscape:connector-curvature="0" /></g></g></g></g></svg>